<svg width="88" height="84" viewBox="0 0 88 84" xmlns="http://www.w3.org/2000/svg" xmlns:xlink="http://www.w3.org/1999/xlink"><svg width="44" height="44" viewBox="-1 -1 44 44"><title>envelope</title><path fill="#fdcd3b" d="M38.063 5.25H3.938A3.938 3.938 0 0 0 0 9.188v23.625a3.94 3.94 0 0 0 3.938 3.938h34.125a3.939 3.939 0 0 0 3.938-3.938V9.188a3.938 3.938 0 0 0-3.938-3.938zM3.598 34.112l-.959-.961 10.827-10.826.959.961L3.598 34.111zm34.804 0L27.575 23.286l.959-.961L39.361 33.15l-.959.961zm-16.089-8.748v.886h-2.625v-.886L2.629 9.548l1.67-1.67 16.702 15.485L37.703 7.878l1.669 1.67-17.059 15.816z"/></svg><svg width="20" height="20" viewBox="-1 -1 20 20" y="44"><title>facebook</title><path fill="#92acae" d="M10.688 3.375h2.813V0h-2.813A3.942 3.942 0 0 0 6.75 3.938v1.688H4.5v3.375h2.25v9h3.375v-9h2.813l.563-3.375h-3.375V3.938a.57.57 0 0 1 .563-.563z"/></svg><svg width="20" height="20" viewBox="-1 -1 20 20" x="20" y="44"><title>facebook2</title><path fill="#fff" d="M10.688 3.375h2.813V0h-2.813A3.942 3.942 0 0 0 6.75 3.938v1.688H4.5v3.375h2.25v9h3.375v-9h2.813l.563-3.375h-3.375V3.938a.57.57 0 0 1 .563-.563z"/></svg><svg width="20" height="20" viewBox="-1 -1 20 20" x="40" y="44"><title>github</title><path fill="#92acae" d="M9 .222a9 9 0 0 0-2.845 17.54c.45.083.615-.195.615-.433 0-.215-.008-.924-.012-1.676-2.504.544-3.032-1.062-3.032-1.062-.409-1.04-.999-1.317-.999-1.317-.817-.559.062-.547.062-.547.904.063 1.379.928 1.379.928.803 1.376 2.105.978 2.619.748.081-.582.314-.979.571-1.203-1.999-.227-4.101-.999-4.101-4.448 0-.983.352-1.785.927-2.416-.093-.227-.402-1.142.087-2.382 0 0 .756-.242 2.476.923A8.67 8.67 0 0 1 9 4.574a8.6 8.6 0 0 1 2.254.303c1.718-1.164 2.472-.923 2.472-.923.49 1.24.182 2.155.089 2.382.577.63.926 1.433.926 2.416 0 3.457-2.105 4.218-4.11 4.441.323.279.61.827.61 1.667 0 1.204-.01 2.173-.01 2.47 0 .24.162.52.618.432a9.001 9.001 0 0 0 6.15-8.539 9 9 0 0 0-9-9z"/></svg><svg width="20" height="20" viewBox="-1 -1 20 20" x="60" y="44"><title>github2</title><path fill="#fff" d="M9 .222a9 9 0 0 0-2.845 17.54c.45.083.615-.195.615-.433 0-.215-.008-.924-.012-1.676-2.504.544-3.032-1.062-3.032-1.062-.409-1.04-.999-1.317-.999-1.317-.817-.559.062-.547.062-.547.904.063 1.379.928 1.379.928.803 1.376 2.105.978 2.619.748.081-.582.314-.979.571-1.203-1.999-.227-4.101-.999-4.101-4.448 0-.983.352-1.785.927-2.416-.093-.227-.402-1.142.087-2.382 0 0 .756-.242 2.476.923A8.67 8.67 0 0 1 9 4.574a8.6 8.6 0 0 1 2.254.303c1.718-1.164 2.472-.923 2.472-.923.49 1.24.182 2.155.089 2.382.577.63.926 1.433.926 2.416 0 3.457-2.105 4.218-4.11 4.441.323.279.61.827.61 1.667 0 1.204-.01 2.173-.01 2.47 0 .24.162.52.618.432a9.001 9.001 0 0 0 6.15-8.539 9 9 0 0 0-9-9z"/></svg><svg width="20" height="20" viewBox="-1 -1 20 20" y="64"><title>google-plus</title><path fill="#92acae" d="M5.727 8.04v1.965h3.248c-.13.844-.981 2.471-3.248 2.471-1.955 0-3.551-1.621-3.551-3.618S3.772 5.24 5.727 5.24c1.114 0 1.856.475 2.282.882l1.554-1.498c-.998-.932-2.292-1.498-3.836-1.498C2.559 3.13 0 5.689 0 8.856s2.559 5.727 5.727 5.727c3.305 0 5.498-2.324 5.498-5.597a5.26 5.26 0 0 0-.091-.949H5.727zM18 7.875h-1.688V6.187h-1.688v1.688h-1.688v1.688h1.688v1.688h1.688V9.563H18z"/></svg><svg width="20" height="20" viewBox="-1 -1 20 20" x="20" y="64"><title>google-plus2</title><path fill="#fff" d="M5.727 8.04v1.965h3.248c-.13.844-.981 2.471-3.248 2.471-1.955 0-3.551-1.621-3.551-3.618S3.772 5.24 5.727 5.24c1.114 0 1.856.475 2.282.882l1.554-1.498c-.998-.932-2.292-1.498-3.836-1.498C2.559 3.13 0 5.689 0 8.856s2.559 5.727 5.727 5.727c3.305 0 5.498-2.324 5.498-5.597a5.26 5.26 0 0 0-.091-.949H5.727zM18 7.875h-1.688V6.187h-1.688v1.688h-1.688v1.688h1.688v1.688h1.688V9.563H18z"/></svg><svg width="20" height="20" viewBox="-1 -1 20 20" x="40" y="64"><title>linkedin2</title><path fill="#92acae" d="M6.75 6.75h3.113v1.596h.045c.433-.777 1.493-1.596 3.073-1.596 3.286 0 3.894 2.046 3.894 4.706v5.419H13.63v-4.804c0-1.146-.023-2.62-1.688-2.62-1.69 0-1.948 1.248-1.948 2.536v4.887H6.75V6.749zm-5.625 0H4.5v10.125H1.125V6.75zM4.5 3.938a1.688 1.688 0 1 1-3.377 0 1.688 1.688 0 0 1 3.377 0z"/></svg><svg width="20" height="20" viewBox="-1 -1 20 20" x="60" y="64"><title>linkedin2</title><path fill="#fff" d="M6.75 6.75h3.113v1.596h.045c.433-.777 1.493-1.596 3.073-1.596 3.286 0 3.894 2.046 3.894 4.706v5.419H13.63v-4.804c0-1.146-.023-2.62-1.688-2.62-1.69 0-1.948 1.248-1.948 2.536v4.887H6.75V6.749zm-5.625 0H4.5v10.125H1.125V6.75zM4.5 3.938a1.688 1.688 0 1 1-3.377 0 1.688 1.688 0 0 1 3.377 0z"/></svg><svg width="44" height="44" viewBox="-1 -1 44 44" x="44"><title>mobile2</title><path fill="#fdcd3b" d="M30.188 0H11.813a3.95 3.95 0 0 0-3.938 3.938v34.125a3.95 3.95 0 0 0 3.938 3.938h18.375a3.95 3.95 0 0 0 3.938-3.938V3.938A3.95 3.95 0 0 0 30.188 0zM15.75 1.969h10.5v1.313h-10.5V1.969zM21 39.375a2.625 2.625 0 1 1 0-5.25 2.625 2.625 0 0 1 0 5.25zM31.5 31.5h-21V5.25h21V31.5z"/></svg></svg>