<!-- Generated by IcoMoon.io -->
<svg version="1.1" xmlns="http://www.w3.org/2000/svg" width="18" height="18" viewBox="0 0 18 18">
<title>github2</title>
<path fill="#fff" d="M9 0.222c-4.97 0-9 4.029-9 9 0 3.976 2.579 7.35 6.155 8.54 0.45 0.083 0.615-0.195 0.615-0.433 0-0.215-0.008-0.924-0.012-1.676-2.504 0.544-3.032-1.062-3.032-1.062-0.409-1.040-0.999-1.317-0.999-1.317-0.817-0.559 0.062-0.547 0.062-0.547 0.904 0.063 1.379 0.928 1.379 0.928 0.803 1.376 2.105 0.978 2.619 0.748 0.081-0.582 0.314-0.979 0.571-1.203-1.999-0.227-4.101-0.999-4.101-4.448 0-0.983 0.352-1.785 0.927-2.416-0.093-0.227-0.402-1.142 0.087-2.382 0 0 0.756-0.242 2.476 0.923 0.718-0.199 1.488-0.299 2.253-0.303 0.765 0.003 1.535 0.103 2.254 0.303 1.718-1.164 2.472-0.923 2.472-0.923 0.49 1.24 0.182 2.155 0.089 2.382 0.577 0.63 0.926 1.433 0.926 2.416 0 3.457-2.105 4.218-4.11 4.441 0.323 0.279 0.61 0.827 0.61 1.667 0 1.204-0.010 2.173-0.010 2.47 0 0.24 0.162 0.52 0.618 0.432 3.574-1.191 6.15-4.564 6.15-8.539 0-4.971-4.030-9-9-9z"></path>
</svg>
