<!-- Generated by IcoMoon.io -->
<svg version="1.1" xmlns="http://www.w3.org/2000/svg" width="42" height="42" viewBox="0 0 42 42">
<title>envelope</title>
<path fill="#fdcd3b" d="M38.063 5.25h-34.125c-2.175 0-3.938 1.763-3.938 3.938v23.625c0 2.173 1.763 3.938 3.938 3.938h34.125c2.175 0 3.938-1.764 3.938-3.938v-23.625c0-2.175-1.763-3.938-3.938-3.938zM3.598 34.112l-0.959-0.961 10.827-10.826 0.959 0.961-10.827 10.825zM38.402 34.112l-10.827-10.826 0.959-0.961 10.827 10.825-0.959 0.961zM22.313 25.364v0.886h-2.625v-0.886l-17.059-15.816 1.67-1.67 16.702 15.485 16.702-15.485 1.669 1.67-17.059 15.816z"></path>
</svg>
