<!-- Generated by IcoMoon.io -->
<svg version="1.1" xmlns="http://www.w3.org/2000/svg" width="18" height="18" viewBox="0 0 18 18">
<title>google-plus2</title>
<path fill="#fff" d="M5.727 8.040v1.965h3.248c-0.13 0.844-0.981 2.471-3.248 2.471-1.955 0-3.551-1.621-3.551-3.618s1.596-3.618 3.551-3.618c1.114 0 1.856 0.475 2.282 0.882l1.554-1.498c-0.998-0.932-2.292-1.498-3.836-1.498-3.168 0.004-5.727 2.563-5.727 5.73s2.559 5.727 5.727 5.727c3.305 0 5.498-2.324 5.498-5.597 0-0.376-0.042-0.664-0.091-0.949h-5.407z"></path>
<path fill="#fff" d="M18 7.875h-1.688v-1.688h-1.688v1.688h-1.688v1.688h1.688v1.688h1.688v-1.688h1.688z"></path>
</svg>
