<!-- Generated by IcoMoon.io -->
<svg version="1.1" xmlns="http://www.w3.org/2000/svg" width="18" height="18" viewBox="0 0 18 18">
<title>linkedin2</title>
<path fill="#92acae" d="M6.75 6.75h3.113v1.596h0.045c0.433-0.777 1.493-1.596 3.073-1.596 3.286 0 3.894 2.046 3.894 4.706v5.419h-3.245v-4.804c0-1.146-0.023-2.62-1.688-2.62-1.69 0-1.948 1.248-1.948 2.536v4.887h-3.244v-10.125z"></path>
<path fill="#92acae" d="M1.125 6.75h3.375v10.125h-3.375v-10.125z"></path>
<path fill="#92acae" d="M4.5 3.938c0 0.932-0.756 1.688-1.688 1.688s-1.688-0.756-1.688-1.688c0-0.932 0.756-1.688 1.688-1.688s1.688 0.756 1.688 1.688z"></path>
</svg>
