<!-- Generated by IcoMoon.io -->
<svg version="1.1" xmlns="http://www.w3.org/2000/svg" width="42" height="42" viewBox="0 0 42 42">
<title>mobile2</title>
<path fill="#fdcd3b" d="M30.188 0h-18.375c-2.166 0-3.938 1.772-3.938 3.938v34.125c0 2.166 1.772 3.938 3.938 3.938h18.375c2.166 0 3.938-1.772 3.938-3.938v-34.125c0-2.166-1.772-3.938-3.938-3.938zM15.75 1.969h10.5v1.313h-10.5v-1.313zM21 39.375c-1.45 0-2.625-1.175-2.625-2.625s1.175-2.625 2.625-2.625 2.625 1.175 2.625 2.625-1.175 2.625-2.625 2.625zM31.5 31.5h-21v-26.25h21v26.25z"></path>
</svg>
